<svg width="40" height="40" viewBox="0 0 40 40" fill="none" xmlns="http://www.w3.org/2000/svg">
<rect width="40" height="40" rx="8" fill="white"/>
<path d="M11 15V17C11.7956 17 12.5587 17.3161 13.1213 17.8787C13.6839 18.4413 14 19.2044 14 20C14 20.7956 13.6839 21.5587 13.1213 22.1213C12.5587 22.6839 11.7956 23 11 23V25C11 26.1 11.9 27 13 27H27C27.5304 27 28.0391 26.7893 28.4142 26.4142C28.7893 26.0391 29 25.5304 29 25V23C28.2044 23 27.4413 22.6839 26.8787 22.1213C26.3161 21.5587 26 20.7956 26 20C26 19.2044 26.3161 18.4413 26.8787 17.8787C27.4413 17.3161 28.2044 17 29 17V15C29 14.4696 28.7893 13.9609 28.4142 13.5858C28.0391 13.2107 27.5304 13 27 13H13C12.4696 13 11.9609 13.2107 11.5858 13.5858C11.2107 13.9609 11 14.4696 11 15Z" stroke="black" stroke-width="2" stroke-linecap="round" stroke-linejoin="round"/>
<path d="M21 13V15" stroke="black" stroke-width="2" stroke-linecap="round" stroke-linejoin="round"/>
<path d="M21 25V27" stroke="black" stroke-width="2" stroke-linecap="round" stroke-linejoin="round"/>
<path d="M21 19V21" stroke="black" stroke-width="2" stroke-linecap="round" stroke-linejoin="round"/>
</svg>
